<mxfile host="app.diagrams.net" modified="2024-07-15T23:29:45.745Z" agent="Mozilla/5.0 (Macintosh; Intel Mac OS X 10_15_7) AppleWebKit/537.36 (KHTML, like Gecko) Chrome/126.0.0.0 Safari/537.36" etag="ggnTGtSFrnIwgo-lH7iw" version="24.6.5" type="google">
  <diagram name="Page-1" id="afN4Lc63X32gX5jUK4hO">
    <mxGraphModel grid="1" page="1" gridSize="10" guides="1" tooltips="1" connect="1" arrows="1" fold="1" pageScale="1" pageWidth="850" pageHeight="1100" math="0" shadow="0">
      <root>
        <mxCell id="0" />
        <mxCell id="1" parent="0" />
        <mxCell id="2agxVDKBpWhEYeaacMhS-1" value="Plant" style="swimlane;fontStyle=1;align=center;verticalAlign=top;childLayout=stackLayout;horizontal=1;startSize=26;horizontalStack=0;resizeParent=1;resizeParentMax=0;resizeLast=0;collapsible=1;marginBottom=0;whiteSpace=wrap;html=1;" vertex="1" parent="1">
          <mxGeometry x="-40" y="320" width="160" height="90" as="geometry" />
        </mxCell>
        <mxCell id="2agxVDKBpWhEYeaacMhS-3" value="" style="line;strokeWidth=1;fillColor=none;align=left;verticalAlign=middle;spacingTop=-1;spacingLeft=3;spacingRight=3;rotatable=0;labelPosition=right;points=[];portConstraint=eastwest;strokeColor=inherit;" vertex="1" parent="2agxVDKBpWhEYeaacMhS-1">
          <mxGeometry y="26" width="160" height="8" as="geometry" />
        </mxCell>
        <mxCell id="2agxVDKBpWhEYeaacMhS-4" value="+ photosynthesize(): void&lt;div&gt;+ transpire():void&lt;/div&gt;&lt;div&gt;+ grow(): void&lt;/div&gt;" style="text;strokeColor=none;fillColor=none;align=left;verticalAlign=top;spacingLeft=4;spacingRight=4;overflow=hidden;rotatable=0;points=[[0,0.5],[1,0.5]];portConstraint=eastwest;whiteSpace=wrap;html=1;" vertex="1" parent="2agxVDKBpWhEYeaacMhS-1">
          <mxGeometry y="34" width="160" height="56" as="geometry" />
        </mxCell>
        <mxCell id="2agxVDKBpWhEYeaacMhS-13" value="SeedBearing" style="swimlane;fontStyle=1;align=center;verticalAlign=top;childLayout=stackLayout;horizontal=1;startSize=26;horizontalStack=0;resizeParent=1;resizeParentMax=0;resizeLast=0;collapsible=1;marginBottom=0;whiteSpace=wrap;html=1;" vertex="1" parent="1">
          <mxGeometry x="-170" y="543" width="210" height="140" as="geometry" />
        </mxCell>
        <mxCell id="2agxVDKBpWhEYeaacMhS-14" value="- seedCount: Int" style="text;strokeColor=none;fillColor=none;align=left;verticalAlign=top;spacingLeft=4;spacingRight=4;overflow=hidden;rotatable=0;points=[[0,0.5],[1,0.5]];portConstraint=eastwest;whiteSpace=wrap;html=1;" vertex="1" parent="2agxVDKBpWhEYeaacMhS-13">
          <mxGeometry y="26" width="210" height="26" as="geometry" />
        </mxCell>
        <mxCell id="2agxVDKBpWhEYeaacMhS-15" value="" style="line;strokeWidth=1;fillColor=none;align=left;verticalAlign=middle;spacingTop=-1;spacingLeft=3;spacingRight=3;rotatable=0;labelPosition=right;points=[];portConstraint=eastwest;strokeColor=inherit;" vertex="1" parent="2agxVDKBpWhEYeaacMhS-13">
          <mxGeometry y="52" width="210" height="8" as="geometry" />
        </mxCell>
        <mxCell id="2agxVDKBpWhEYeaacMhS-16" value="+ SeedBearing(seedCount:int)&lt;div&gt;+ polinate(): void&lt;/div&gt;&lt;div&gt;+ setSeedCount(seedCount: int): void&lt;br&gt;&lt;div&gt;+ getSeedCount():int&lt;/div&gt;&lt;/div&gt;" style="text;strokeColor=none;fillColor=none;align=left;verticalAlign=top;spacingLeft=4;spacingRight=4;overflow=hidden;rotatable=0;points=[[0,0.5],[1,0.5]];portConstraint=eastwest;whiteSpace=wrap;html=1;" vertex="1" parent="2agxVDKBpWhEYeaacMhS-13">
          <mxGeometry y="60" width="210" height="80" as="geometry" />
        </mxCell>
        <mxCell id="2agxVDKBpWhEYeaacMhS-17" value="SporeBearing" style="swimlane;fontStyle=1;align=center;verticalAlign=top;childLayout=stackLayout;horizontal=1;startSize=26;horizontalStack=0;resizeParent=1;resizeParentMax=0;resizeLast=0;collapsible=1;marginBottom=0;whiteSpace=wrap;html=1;" vertex="1" parent="1">
          <mxGeometry x="210" y="557" width="330" height="520" as="geometry" />
        </mxCell>
        <mxCell id="2agxVDKBpWhEYeaacMhS-18" value="- stem : Stem&lt;div&gt;- leaf: Leaf&lt;/div&gt;&lt;div&gt;- root: Root&lt;/div&gt;&lt;div&gt;- sporeCount: int&lt;/div&gt;&lt;div&gt;- sporeType: String&lt;/div&gt;" style="text;strokeColor=none;fillColor=none;align=left;verticalAlign=top;spacingLeft=4;spacingRight=4;overflow=hidden;rotatable=0;points=[[0,0.5],[1,0.5]];portConstraint=eastwest;whiteSpace=wrap;html=1;" vertex="1" parent="2agxVDKBpWhEYeaacMhS-17">
          <mxGeometry y="26" width="330" height="94" as="geometry" />
        </mxCell>
        <mxCell id="2agxVDKBpWhEYeaacMhS-19" value="" style="line;strokeWidth=1;fillColor=none;align=left;verticalAlign=middle;spacingTop=-1;spacingLeft=3;spacingRight=3;rotatable=0;labelPosition=right;points=[];portConstraint=eastwest;strokeColor=inherit;" vertex="1" parent="2agxVDKBpWhEYeaacMhS-17">
          <mxGeometry y="120" width="330" height="8" as="geometry" />
        </mxCell>
        <mxCell id="2agxVDKBpWhEYeaacMhS-20" value="+ SporeBearing(stem:Stem, leaf:Leaf, root:Root, sporeCount: int, sporeType:String)&lt;div&gt;+ SporeBearing(stem:Stem, sporeCount:int, sporeType:String)&lt;/div&gt;&lt;div&gt;+ SporeBearing(&lt;span style=&quot;background-color: initial;&quot;&gt;stem:Stem, leaf:Leaf, sporeCount: int, sporeType:String)&lt;/span&gt;&lt;/div&gt;&lt;div&gt;&lt;span style=&quot;background-color: initial;&quot;&gt;+&amp;nbsp;&lt;/span&gt;&lt;span style=&quot;background-color: initial;&quot;&gt;SporeBearing(stem:Stem, root:Root, sporeCount: int, sporeType:String)&lt;/span&gt;&lt;/div&gt;&lt;div&gt;&lt;span style=&quot;background-color: initial;&quot;&gt;+&amp;nbsp;&lt;/span&gt;&lt;span style=&quot;background-color: initial;&quot;&gt;SporeBearing( leaf:Leaf, root:Root, sporeCount: int, sporeType:String)&lt;/span&gt;&lt;/div&gt;&lt;div&gt;&lt;span style=&quot;background-color: initial;&quot;&gt;+&amp;nbsp;&lt;/span&gt;&lt;span style=&quot;background-color: initial;&quot;&gt;SporeBearing(stem:Stem, root:Root, sporeCount: int, sporeType:String)&lt;/span&gt;&lt;/div&gt;&lt;div&gt;&lt;span style=&quot;background-color: initial;&quot;&gt;+&amp;nbsp;&lt;/span&gt;&lt;span style=&quot;background-color: initial;&quot;&gt;SporeBearing(root:Root, sporeCount: int, sporeType:String)&lt;/span&gt;&lt;/div&gt;&lt;div&gt;&lt;span style=&quot;background-color: initial;&quot;&gt;+&amp;nbsp;&lt;/span&gt;&lt;span style=&quot;background-color: initial;&quot;&gt;SporeBearing( leaf:Leaf, sporeCount: int, sporeType:String)&lt;/span&gt;&lt;/div&gt;&lt;div&gt;&lt;span style=&quot;background-color: initial;&quot;&gt;+ setSporeCount(sporeCount: int):void&lt;/span&gt;&lt;/div&gt;&lt;div&gt;&lt;span style=&quot;background-color: initial;&quot;&gt;+ setSporeType(sporeType: String): void&lt;/span&gt;&lt;/div&gt;&lt;div&gt;&lt;span style=&quot;background-color: initial;&quot;&gt;+ setStem(stemHeight:int):void&lt;/span&gt;&lt;/div&gt;&lt;div&gt;&lt;span style=&quot;background-color: initial;&quot;&gt;+ setRoot(rootLength:int):void&lt;/span&gt;&lt;/div&gt;&lt;div&gt;&lt;span style=&quot;background-color: initial;&quot;&gt;+ setLeaf(leafSize: int):void&lt;/span&gt;&lt;/div&gt;&lt;div&gt;&lt;span style=&quot;background-color: initial;&quot;&gt;+ getSporeCount(): int&lt;/span&gt;&lt;/div&gt;&lt;div&gt;&lt;span style=&quot;background-color: initial;&quot;&gt;+ getSporeType():String&lt;/span&gt;&lt;/div&gt;&lt;div&gt;&lt;span style=&quot;background-color: initial;&quot;&gt;+ getStem(): Stem&lt;/span&gt;&lt;/div&gt;&lt;div&gt;&lt;span style=&quot;background-color: initial;&quot;&gt;+ getRoot(): Root&lt;/span&gt;&lt;/div&gt;&lt;div&gt;&lt;span style=&quot;background-color: initial;&quot;&gt;+ getLeaf(): Leaf&lt;/span&gt;&lt;/div&gt;" style="text;strokeColor=none;fillColor=none;align=left;verticalAlign=top;spacingLeft=4;spacingRight=4;overflow=hidden;rotatable=0;points=[[0,0.5],[1,0.5]];portConstraint=eastwest;whiteSpace=wrap;html=1;" vertex="1" parent="2agxVDKBpWhEYeaacMhS-17">
          <mxGeometry y="128" width="330" height="392" as="geometry" />
        </mxCell>
        <mxCell id="2agxVDKBpWhEYeaacMhS-25" value="Root" style="swimlane;fontStyle=1;align=center;verticalAlign=top;childLayout=stackLayout;horizontal=1;startSize=26;horizontalStack=0;resizeParent=1;resizeParentMax=0;resizeLast=0;collapsible=1;marginBottom=0;whiteSpace=wrap;html=1;" vertex="1" parent="1">
          <mxGeometry x="-530" y="413" width="210" height="130" as="geometry" />
        </mxCell>
        <mxCell id="2agxVDKBpWhEYeaacMhS-26" value="- rootLength: int" style="text;strokeColor=none;fillColor=none;align=left;verticalAlign=top;spacingLeft=4;spacingRight=4;overflow=hidden;rotatable=0;points=[[0,0.5],[1,0.5]];portConstraint=eastwest;whiteSpace=wrap;html=1;" vertex="1" parent="2agxVDKBpWhEYeaacMhS-25">
          <mxGeometry y="26" width="210" height="26" as="geometry" />
        </mxCell>
        <mxCell id="2agxVDKBpWhEYeaacMhS-27" value="" style="line;strokeWidth=1;fillColor=none;align=left;verticalAlign=middle;spacingTop=-1;spacingLeft=3;spacingRight=3;rotatable=0;labelPosition=right;points=[];portConstraint=eastwest;strokeColor=inherit;" vertex="1" parent="2agxVDKBpWhEYeaacMhS-25">
          <mxGeometry y="52" width="210" height="8" as="geometry" />
        </mxCell>
        <mxCell id="2agxVDKBpWhEYeaacMhS-28" value="+ Root(rootLength: int)&lt;div&gt;+ setRootLength(rootLength: int): void&lt;/div&gt;&lt;div&gt;+ getRootLength(): int&lt;/div&gt;" style="text;strokeColor=none;fillColor=none;align=left;verticalAlign=top;spacingLeft=4;spacingRight=4;overflow=hidden;rotatable=0;points=[[0,0.5],[1,0.5]];portConstraint=eastwest;whiteSpace=wrap;html=1;" vertex="1" parent="2agxVDKBpWhEYeaacMhS-25">
          <mxGeometry y="60" width="210" height="70" as="geometry" />
        </mxCell>
        <mxCell id="2agxVDKBpWhEYeaacMhS-33" value="Stem" style="swimlane;fontStyle=1;align=center;verticalAlign=top;childLayout=stackLayout;horizontal=1;startSize=26;horizontalStack=0;resizeParent=1;resizeParentMax=0;resizeLast=0;collapsible=1;marginBottom=0;whiteSpace=wrap;html=1;" vertex="1" parent="1">
          <mxGeometry x="-650" y="240" width="220" height="120" as="geometry" />
        </mxCell>
        <mxCell id="2agxVDKBpWhEYeaacMhS-34" value="- stemHeight: Int&lt;div&gt;&lt;br&gt;&lt;/div&gt;" style="text;strokeColor=none;fillColor=none;align=left;verticalAlign=top;spacingLeft=4;spacingRight=4;overflow=hidden;rotatable=0;points=[[0,0.5],[1,0.5]];portConstraint=eastwest;whiteSpace=wrap;html=1;" vertex="1" parent="2agxVDKBpWhEYeaacMhS-33">
          <mxGeometry y="26" width="220" height="26" as="geometry" />
        </mxCell>
        <mxCell id="2agxVDKBpWhEYeaacMhS-35" value="" style="line;strokeWidth=1;fillColor=none;align=left;verticalAlign=middle;spacingTop=-1;spacingLeft=3;spacingRight=3;rotatable=0;labelPosition=right;points=[];portConstraint=eastwest;strokeColor=inherit;" vertex="1" parent="2agxVDKBpWhEYeaacMhS-33">
          <mxGeometry y="52" width="220" height="8" as="geometry" />
        </mxCell>
        <mxCell id="2agxVDKBpWhEYeaacMhS-36" value="+ Stem(stemHeight: Int)&lt;div&gt;+ setStemHeight(&lt;span style=&quot;background-color: initial;&quot;&gt;stemHeight: Int&lt;/span&gt;&lt;span style=&quot;background-color: initial;&quot;&gt;): void&lt;/span&gt;&lt;/div&gt;&lt;div&gt;&lt;span style=&quot;background-color: initial;&quot;&gt;+ getStemHeight(): Int&lt;/span&gt;&lt;/div&gt;" style="text;strokeColor=none;fillColor=none;align=left;verticalAlign=top;spacingLeft=4;spacingRight=4;overflow=hidden;rotatable=0;points=[[0,0.5],[1,0.5]];portConstraint=eastwest;whiteSpace=wrap;html=1;" vertex="1" parent="2agxVDKBpWhEYeaacMhS-33">
          <mxGeometry y="60" width="220" height="60" as="geometry" />
        </mxCell>
        <mxCell id="2agxVDKBpWhEYeaacMhS-42" value="Fruit" style="swimlane;fontStyle=1;align=center;verticalAlign=top;childLayout=stackLayout;horizontal=1;startSize=26;horizontalStack=0;resizeParent=1;resizeParentMax=0;resizeLast=0;collapsible=1;marginBottom=0;whiteSpace=wrap;html=1;" vertex="1" parent="1">
          <mxGeometry x="-740" y="629" width="280" height="160" as="geometry" />
        </mxCell>
        <mxCell id="2agxVDKBpWhEYeaacMhS-43" value="- fruitType: String&lt;div&gt;- seedCount: Int&lt;/div&gt;&lt;div&gt;&lt;br&gt;&lt;/div&gt;" style="text;strokeColor=none;fillColor=none;align=left;verticalAlign=top;spacingLeft=4;spacingRight=4;overflow=hidden;rotatable=0;points=[[0,0.5],[1,0.5]];portConstraint=eastwest;whiteSpace=wrap;html=1;" vertex="1" parent="2agxVDKBpWhEYeaacMhS-42">
          <mxGeometry y="26" width="280" height="44" as="geometry" />
        </mxCell>
        <mxCell id="2agxVDKBpWhEYeaacMhS-44" value="" style="line;strokeWidth=1;fillColor=none;align=left;verticalAlign=middle;spacingTop=-1;spacingLeft=3;spacingRight=3;rotatable=0;labelPosition=right;points=[];portConstraint=eastwest;strokeColor=inherit;" vertex="1" parent="2agxVDKBpWhEYeaacMhS-42">
          <mxGeometry y="70" width="280" height="8" as="geometry" />
        </mxCell>
        <mxCell id="2agxVDKBpWhEYeaacMhS-45" value="+ Fruit(fruitType: String, seedCount: String)&lt;div&gt;+ setFruitType(fruitType: String): void&lt;/div&gt;&lt;div&gt;+ setSeedCount(seedCount: String): seedCount&lt;/div&gt;&lt;div&gt;+ getFruitType(): String&lt;/div&gt;&lt;div&gt;+ getSeedCount(): String&lt;/div&gt;" style="text;strokeColor=none;fillColor=none;align=left;verticalAlign=top;spacingLeft=4;spacingRight=4;overflow=hidden;rotatable=0;points=[[0,0.5],[1,0.5]];portConstraint=eastwest;whiteSpace=wrap;html=1;" vertex="1" parent="2agxVDKBpWhEYeaacMhS-42">
          <mxGeometry y="78" width="280" height="82" as="geometry" />
        </mxCell>
        <mxCell id="0GnpAx_W0VgafS28BloK-1" value="Gymnosperm" style="swimlane;fontStyle=1;align=center;verticalAlign=top;childLayout=stackLayout;horizontal=1;startSize=26;horizontalStack=0;resizeParent=1;resizeParentMax=0;resizeLast=0;collapsible=1;marginBottom=0;whiteSpace=wrap;html=1;" vertex="1" parent="1">
          <mxGeometry x="-80" y="733" width="240" height="160" as="geometry" />
        </mxCell>
        <mxCell id="0GnpAx_W0VgafS28BloK-2" value="- coneType: String&lt;div&gt;- needleType: String&lt;br&gt;&lt;div&gt;&lt;br&gt;&lt;/div&gt;&lt;/div&gt;" style="text;strokeColor=none;fillColor=none;align=left;verticalAlign=top;spacingLeft=4;spacingRight=4;overflow=hidden;rotatable=0;points=[[0,0.5],[1,0.5]];portConstraint=eastwest;whiteSpace=wrap;html=1;" vertex="1" parent="0GnpAx_W0VgafS28BloK-1">
          <mxGeometry y="26" width="240" height="44" as="geometry" />
        </mxCell>
        <mxCell id="0GnpAx_W0VgafS28BloK-3" value="" style="line;strokeWidth=1;fillColor=none;align=left;verticalAlign=middle;spacingTop=-1;spacingLeft=3;spacingRight=3;rotatable=0;labelPosition=right;points=[];portConstraint=eastwest;strokeColor=inherit;" vertex="1" parent="0GnpAx_W0VgafS28BloK-1">
          <mxGeometry y="70" width="240" height="8" as="geometry" />
        </mxCell>
        <mxCell id="0GnpAx_W0VgafS28BloK-4" value="+ Gymnosperm(coneType: String)&amp;nbsp;&lt;div&gt;+ setConeType(&lt;span style=&quot;background-color: initial;&quot;&gt;coneType: String): void&lt;/span&gt;&lt;/div&gt;&lt;div&gt;&lt;span style=&quot;background-color: initial;&quot;&gt;+ setNeedleType(needleType: String): void&lt;/span&gt;&lt;/div&gt;&lt;div&gt;&lt;span style=&quot;background-color: initial;&quot;&gt;+ getConeType(): String&lt;/span&gt;&lt;/div&gt;&lt;div&gt;&lt;span style=&quot;background-color: initial;&quot;&gt;+ getNeedleType(): String&lt;/span&gt;&lt;/div&gt;" style="text;strokeColor=none;fillColor=none;align=left;verticalAlign=top;spacingLeft=4;spacingRight=4;overflow=hidden;rotatable=0;points=[[0,0.5],[1,0.5]];portConstraint=eastwest;whiteSpace=wrap;html=1;" vertex="1" parent="0GnpAx_W0VgafS28BloK-1">
          <mxGeometry y="78" width="240" height="82" as="geometry" />
        </mxCell>
        <mxCell id="2agxVDKBpWhEYeaacMhS-46" value="Leaf" style="swimlane;fontStyle=1;align=center;verticalAlign=top;childLayout=stackLayout;horizontal=1;startSize=26;horizontalStack=0;resizeParent=1;resizeParentMax=0;resizeLast=0;collapsible=1;marginBottom=0;whiteSpace=wrap;html=1;" vertex="1" parent="1">
          <mxGeometry x="-380" y="240" width="180" height="120" as="geometry" />
        </mxCell>
        <mxCell id="2agxVDKBpWhEYeaacMhS-47" value="- leafSize: Int" style="text;strokeColor=none;fillColor=none;align=left;verticalAlign=top;spacingLeft=4;spacingRight=4;overflow=hidden;rotatable=0;points=[[0,0.5],[1,0.5]];portConstraint=eastwest;whiteSpace=wrap;html=1;" vertex="1" parent="2agxVDKBpWhEYeaacMhS-46">
          <mxGeometry y="26" width="180" height="26" as="geometry" />
        </mxCell>
        <mxCell id="2agxVDKBpWhEYeaacMhS-48" value="" style="line;strokeWidth=1;fillColor=none;align=left;verticalAlign=middle;spacingTop=-1;spacingLeft=3;spacingRight=3;rotatable=0;labelPosition=right;points=[];portConstraint=eastwest;strokeColor=inherit;" vertex="1" parent="2agxVDKBpWhEYeaacMhS-46">
          <mxGeometry y="52" width="180" height="8" as="geometry" />
        </mxCell>
        <mxCell id="2agxVDKBpWhEYeaacMhS-49" value="+ Leaf(leafSize: Int)&lt;div&gt;+ setLeafSize(leafSize: Int)&lt;/div&gt;&lt;div&gt;+ getLeafSize(): Int&lt;/div&gt;" style="text;strokeColor=none;fillColor=none;align=left;verticalAlign=top;spacingLeft=4;spacingRight=4;overflow=hidden;rotatable=0;points=[[0,0.5],[1,0.5]];portConstraint=eastwest;whiteSpace=wrap;html=1;" vertex="1" parent="2agxVDKBpWhEYeaacMhS-46">
          <mxGeometry y="60" width="180" height="60" as="geometry" />
        </mxCell>
        <mxCell id="2agxVDKBpWhEYeaacMhS-50" value="Angiosperm" style="swimlane;fontStyle=1;align=center;verticalAlign=top;childLayout=stackLayout;horizontal=1;startSize=26;horizontalStack=0;resizeParent=1;resizeParentMax=0;resizeLast=0;collapsible=1;marginBottom=0;whiteSpace=wrap;html=1;" vertex="1" parent="1">
          <mxGeometry x="-340" y="733" width="220" height="150" as="geometry" />
        </mxCell>
        <mxCell id="2agxVDKBpWhEYeaacMhS-51" value="&lt;div&gt;- flowerType: String&lt;/div&gt;" style="text;strokeColor=none;fillColor=none;align=left;verticalAlign=top;spacingLeft=4;spacingRight=4;overflow=hidden;rotatable=0;points=[[0,0.5],[1,0.5]];portConstraint=eastwest;whiteSpace=wrap;html=1;" vertex="1" parent="2agxVDKBpWhEYeaacMhS-50">
          <mxGeometry y="26" width="220" height="44" as="geometry" />
        </mxCell>
        <mxCell id="2agxVDKBpWhEYeaacMhS-52" value="" style="line;strokeWidth=1;fillColor=none;align=left;verticalAlign=middle;spacingTop=-1;spacingLeft=3;spacingRight=3;rotatable=0;labelPosition=right;points=[];portConstraint=eastwest;strokeColor=inherit;" vertex="1" parent="2agxVDKBpWhEYeaacMhS-50">
          <mxGeometry y="70" width="220" height="8" as="geometry" />
        </mxCell>
        <mxCell id="2agxVDKBpWhEYeaacMhS-53" value="+ Angiosperm(flowerType: String)&lt;div&gt;+ setFlowerType(flowerType: String): void&lt;/div&gt;&lt;div&gt;+ getFlowerType(): String&lt;/div&gt;" style="text;strokeColor=none;fillColor=none;align=left;verticalAlign=top;spacingLeft=4;spacingRight=4;overflow=hidden;rotatable=0;points=[[0,0.5],[1,0.5]];portConstraint=eastwest;whiteSpace=wrap;html=1;" vertex="1" parent="2agxVDKBpWhEYeaacMhS-50">
          <mxGeometry y="78" width="220" height="72" as="geometry" />
        </mxCell>
        <mxCell id="2agxVDKBpWhEYeaacMhS-57" value="" style="endArrow=diamondThin;endFill=1;endSize=24;html=1;rounded=0;entryX=0.394;entryY=1.039;entryDx=0;entryDy=0;entryPerimeter=0;" edge="1" parent="1" target="2agxVDKBpWhEYeaacMhS-49">
          <mxGeometry width="160" relative="1" as="geometry">
            <mxPoint x="-170" y="568" as="sourcePoint" />
            <mxPoint x="-310" y="380" as="targetPoint" />
            <Array as="points">
              <mxPoint x="-310" y="568" />
            </Array>
          </mxGeometry>
        </mxCell>
        <mxCell id="0GnpAx_W0VgafS28BloK-14" value="" style="endArrow=block;endSize=16;endFill=0;html=1;rounded=0;entryX=0.272;entryY=1.084;entryDx=0;entryDy=0;entryPerimeter=0;" edge="1" parent="1" source="2agxVDKBpWhEYeaacMhS-13" target="2agxVDKBpWhEYeaacMhS-4">
          <mxGeometry width="160" relative="1" as="geometry">
            <mxPoint x="-99.99999999999972" y="542.996" as="sourcePoint" />
            <mxPoint x="10" y="440" as="targetPoint" />
          </mxGeometry>
        </mxCell>
        <mxCell id="0GnpAx_W0VgafS28BloK-15" value="" style="endArrow=block;endSize=16;endFill=0;html=1;rounded=0;exitX=0.293;exitY=-0.005;exitDx=0;exitDy=0;exitPerimeter=0;" edge="1" parent="1" source="2agxVDKBpWhEYeaacMhS-17" target="2agxVDKBpWhEYeaacMhS-4">
          <mxGeometry width="160" relative="1" as="geometry">
            <mxPoint x="61" y="730" as="sourcePoint" />
            <mxPoint x="200" y="450" as="targetPoint" />
          </mxGeometry>
        </mxCell>
        <mxCell id="0GnpAx_W0VgafS28BloK-18" value="" style="endArrow=block;endSize=16;endFill=0;html=1;rounded=0;exitX=0.75;exitY=0;exitDx=0;exitDy=0;entryX=0.265;entryY=1.035;entryDx=0;entryDy=0;entryPerimeter=0;" edge="1" parent="1" source="2agxVDKBpWhEYeaacMhS-50" target="2agxVDKBpWhEYeaacMhS-16">
          <mxGeometry width="160" relative="1" as="geometry">
            <mxPoint x="-219.5" y="733" as="sourcePoint" />
            <mxPoint x="-121" y="628" as="targetPoint" />
          </mxGeometry>
        </mxCell>
        <mxCell id="0GnpAx_W0VgafS28BloK-19" value="" style="endArrow=block;endSize=16;endFill=0;html=1;rounded=0;entryX=0.611;entryY=1.005;entryDx=0;entryDy=0;entryPerimeter=0;" edge="1" parent="1" target="2agxVDKBpWhEYeaacMhS-16">
          <mxGeometry width="160" relative="1" as="geometry">
            <mxPoint y="730" as="sourcePoint" />
            <mxPoint x="-80" y="633" as="targetPoint" />
          </mxGeometry>
        </mxCell>
        <mxCell id="2agxVDKBpWhEYeaacMhS-59" value="" style="endArrow=diamondThin;endFill=1;endSize=24;html=1;rounded=0;entryX=0.486;entryY=1.101;entryDx=0;entryDy=0;entryPerimeter=0;" edge="1" parent="1" target="2agxVDKBpWhEYeaacMhS-28">
          <mxGeometry width="160" relative="1" as="geometry">
            <mxPoint x="-170" y="600" as="sourcePoint" />
            <mxPoint x="-303" y="392" as="targetPoint" />
            <Array as="points">
              <mxPoint x="-428" y="600" />
            </Array>
          </mxGeometry>
        </mxCell>
        <mxCell id="2agxVDKBpWhEYeaacMhS-60" value="" style="endArrow=diamondThin;endFill=1;endSize=24;html=1;rounded=0;exitX=0.004;exitY=0.133;exitDx=0;exitDy=0;entryX=0.46;entryY=1.02;entryDx=0;entryDy=0;entryPerimeter=0;exitPerimeter=0;" edge="1" parent="1" source="2agxVDKBpWhEYeaacMhS-16" target="2agxVDKBpWhEYeaacMhS-36">
          <mxGeometry width="160" relative="1" as="geometry">
            <mxPoint x="-180" y="613" as="sourcePoint" />
            <mxPoint x="-540" y="370" as="targetPoint" />
            <Array as="points">
              <mxPoint x="-550" y="614" />
            </Array>
          </mxGeometry>
        </mxCell>
        <mxCell id="2agxVDKBpWhEYeaacMhS-38" value="Flower" style="swimlane;fontStyle=1;align=center;verticalAlign=top;childLayout=stackLayout;horizontal=1;startSize=26;horizontalStack=0;resizeParent=1;resizeParentMax=0;resizeLast=0;collapsible=1;marginBottom=0;whiteSpace=wrap;html=1;" vertex="1" parent="1">
          <mxGeometry x="-540" y="893" width="220" height="120" as="geometry" />
        </mxCell>
        <mxCell id="2agxVDKBpWhEYeaacMhS-39" value="- petalCount: Int&lt;div&gt;&lt;br&gt;&lt;/div&gt;" style="text;strokeColor=none;fillColor=none;align=left;verticalAlign=top;spacingLeft=4;spacingRight=4;overflow=hidden;rotatable=0;points=[[0,0.5],[1,0.5]];portConstraint=eastwest;whiteSpace=wrap;html=1;" vertex="1" parent="2agxVDKBpWhEYeaacMhS-38">
          <mxGeometry y="26" width="220" height="26" as="geometry" />
        </mxCell>
        <mxCell id="2agxVDKBpWhEYeaacMhS-40" value="" style="line;strokeWidth=1;fillColor=none;align=left;verticalAlign=middle;spacingTop=-1;spacingLeft=3;spacingRight=3;rotatable=0;labelPosition=right;points=[];portConstraint=eastwest;strokeColor=inherit;" vertex="1" parent="2agxVDKBpWhEYeaacMhS-38">
          <mxGeometry y="52" width="220" height="8" as="geometry" />
        </mxCell>
        <mxCell id="2agxVDKBpWhEYeaacMhS-41" value="+ Flower(petalCount: Int)&lt;div&gt;+ setPetalCount(petalCount: Int): void&lt;/div&gt;&lt;div&gt;+ getPetalCount(): Int&lt;/div&gt;" style="text;strokeColor=none;fillColor=none;align=left;verticalAlign=top;spacingLeft=4;spacingRight=4;overflow=hidden;rotatable=0;points=[[0,0.5],[1,0.5]];portConstraint=eastwest;whiteSpace=wrap;html=1;" vertex="1" parent="2agxVDKBpWhEYeaacMhS-38">
          <mxGeometry y="60" width="220" height="60" as="geometry" />
        </mxCell>
        <mxCell id="0GnpAx_W0VgafS28BloK-22" value="" style="endArrow=diamondThin;endFill=1;endSize=24;html=1;rounded=0;fontSize=12;curved=1;exitX=-0.01;exitY=0.285;exitDx=0;exitDy=0;exitPerimeter=0;" edge="1" parent="1" source="2agxVDKBpWhEYeaacMhS-53">
          <mxGeometry width="160" relative="1" as="geometry">
            <mxPoint x="-430" y="783" as="sourcePoint" />
            <mxPoint x="-450" y="893" as="targetPoint" />
            <Array as="points">
              <mxPoint x="-440" y="833" />
            </Array>
          </mxGeometry>
        </mxCell>
        <mxCell id="2agxVDKBpWhEYeaacMhS-63" value="" style="endArrow=diamondThin;endFill=0;endSize=24;html=1;rounded=0;entryX=0.439;entryY=-0.025;entryDx=0;entryDy=0;entryPerimeter=0;exitX=0.696;exitY=-0.003;exitDx=0;exitDy=0;exitPerimeter=0;" edge="1" parent="1" source="2agxVDKBpWhEYeaacMhS-17" target="2agxVDKBpWhEYeaacMhS-46">
          <mxGeometry width="160" relative="1" as="geometry">
            <mxPoint x="440" y="550" as="sourcePoint" />
            <mxPoint x="60" y="400" as="targetPoint" />
            <Array as="points">
              <mxPoint x="440" y="180" />
              <mxPoint x="-300" y="180" />
            </Array>
          </mxGeometry>
        </mxCell>
        <mxCell id="2agxVDKBpWhEYeaacMhS-64" value="" style="endArrow=diamondThin;endFill=0;endSize=24;html=1;rounded=0;exitX=0.866;exitY=-0.008;exitDx=0;exitDy=0;exitPerimeter=0;" edge="1" parent="1" source="2agxVDKBpWhEYeaacMhS-17">
          <mxGeometry width="160" relative="1" as="geometry">
            <mxPoint x="355" y="557" as="sourcePoint" />
            <mxPoint x="-410" y="410" as="targetPoint" />
            <Array as="points">
              <mxPoint x="500" y="150" />
              <mxPoint x="40" y="150" />
              <mxPoint x="-410" y="150" />
            </Array>
          </mxGeometry>
        </mxCell>
        <mxCell id="2agxVDKBpWhEYeaacMhS-65" value="" style="endArrow=diamondThin;endFill=0;endSize=24;html=1;rounded=0;exitX=0.586;exitY=0.001;exitDx=0;exitDy=0;exitPerimeter=0;entryX=0.364;entryY=0;entryDx=0;entryDy=0;entryPerimeter=0;" edge="1" parent="1" source="2agxVDKBpWhEYeaacMhS-17" target="2agxVDKBpWhEYeaacMhS-33">
          <mxGeometry width="160" relative="1" as="geometry">
            <mxPoint x="350" y="577" as="sourcePoint" />
            <mxPoint x="-595" y="240" as="targetPoint" />
            <Array as="points">
              <mxPoint x="410" y="200" />
              <mxPoint x="160" y="200" />
              <mxPoint x="-80" y="200" />
              <mxPoint x="-330" y="200" />
              <mxPoint x="-570" y="200" />
            </Array>
          </mxGeometry>
        </mxCell>
        <mxCell id="0GnpAx_W0VgafS28BloK-24" value="" style="endArrow=diamondThin;endFill=1;endSize=24;html=1;rounded=0;fontSize=12;curved=1;exitX=0.002;exitY=0.223;exitDx=0;exitDy=0;exitPerimeter=0;" edge="1" parent="1" source="2agxVDKBpWhEYeaacMhS-51">
          <mxGeometry width="160" relative="1" as="geometry">
            <mxPoint x="-360" y="780" as="sourcePoint" />
            <mxPoint x="-460" y="700" as="targetPoint" />
            <Array as="points">
              <mxPoint x="-380" y="750" />
              <mxPoint x="-410" y="700" />
            </Array>
          </mxGeometry>
        </mxCell>
      </root>
    </mxGraphModel>
  </diagram>
</mxfile>
